<svg aria-hidden="true" style="width:0;height:0;position:absolute;overflow:hidden" xmlns="http://www.w3.org/2000/svg"><defs><symbol id="account" viewBox="0 0 32 32"><path d="M21.821 17.135a9.595 9.595 0 1 0-11.888-.015l.02.015C4.558 19.338.688 24.254.015 30.141l-.007.074a1.609 1.609 0 0 0 3.198.359l.001-.007c.746-6.421 6.152-11.359 12.713-11.359s11.967 4.938 12.707 11.299l.006.06a1.602 1.602 0 0 0 1.59 1.424h.184a1.602 1.602 0 0 0 1.406-1.767l.001.007a16.035 16.035 0 0 0-9.886-13.058l-.107-.038zM15.888 16a6.397 6.397 0 1 1 0-12.794 6.397 6.397 0 1 1 0 12.794z"/></symbol><symbol id="buy" viewBox="0 0 32 32"><path d="M30.353 22.373H7.988a1.597 1.597 0 1 1 0-3.196h16.679a4.794 4.794 0 0 0 4.641-3.593l.007-.033 2.636-10.373a1.59 1.59 0 0 0-.291-1.377l.003.003a1.597 1.597 0 0 0-1.255-.609l-.057.001h.003H7.605C6.928 1.323 5.169.007 3.1 0H1.598a1.597 1.597 0 1 0 0 3.196h1.501l.048-.001c.747 0 1.374.512 1.549 1.204l.002.011.095.767 2.764 10.804a4.798 4.798 0 0 0-4.576 5.02v-.011a4.802 4.802 0 0 0 5.018 4.578h-.011.287a4.796 4.796 0 0 0 4.507 6.431h.003a4.791 4.791 0 0 0 4.491-6.464l.011.033h3.771a4.798 4.798 0 0 0 2.267 5.876l.026.013a4.791 4.791 0 0 0 6.705-5.923l.011.033h.288a1.597 1.597 0 1 0 0-3.196zM28.308 6.392l-2.093 8.375a1.6 1.6 0 0 1-1.552 1.214l-.047-.001h.002-13.787L8.434 6.393h19.873zM12.78 28.765l-.046.001a1.597 1.597 0 1 1 .049-3.193h-.002a1.597 1.597 0 1 1 0 3.194zm12.781 0-.046.001a1.597 1.597 0 1 1 .049-3.193h-.002a1.597 1.597 0 1 1 0 3.194z"/></symbol><symbol id="facebook" viewBox="0 0 34 32"><path d="M30.262 0H1.782a1.76 1.76 0 0 0-1.76 1.76v28.48c0 .972.788 1.76 1.76 1.76H17.11V19.6h-4.16v-4.8h4.16v-3.6a5.824 5.824 0 0 1 6.227-6.399l-.019-.001.199-.001c1.243 0 2.47.07 3.676.206l-.148-.014v4.32h-2.544c-2.016 0-2.4.96-2.4 2.352v3.088h4.8l-.624 4.8h-4.176v12.448h8.16a1.761 1.761 0 0 0 1.76-1.76V1.759a1.76 1.76 0 0 0-1.76-1.76z"/></symbol><symbol id="instagram" viewBox="0 0 34 32"><path d="M16.022 12.032a3.969 3.969 0 0 0 0 7.936 3.969 3.969 0 0 0 0-7.936zm15.888-3.92a10.424 10.424 0 0 0-.696-3.687l.024.071A6.437 6.437 0 0 0 27.57.799l-.044-.015a10.247 10.247 0 0 0-3.612-.672h-.004C21.846 0 21.238 0 16.022 0s-5.824 0-7.888.112a10.424 10.424 0 0 0-3.687.696l.071-.024A6.437 6.437 0 0 0 .821 4.452l-.015.044a10.247 10.247 0 0 0-.672 3.612v.004C.022 10.176.022 10.784.022 16s0 5.824.112 7.888c.019 1.309.264 2.554.697 3.708l-.025-.076c.32.842.816 1.606 1.456 2.24a6.235 6.235 0 0 0 2.256 1.456c1.073.417 2.314.663 3.612.672h.004c2.064.112 2.672.112 7.888.112s5.824 0 7.888-.112a10.424 10.424 0 0 0 3.687-.696l-.071.024a6.256 6.256 0 0 0 2.256-1.456 6.305 6.305 0 0 0 1.456-2.24 10.36 10.36 0 0 0 .672-3.628v-.004c.112-2.064.112-2.672.112-7.888s0-5.824-.112-7.888zm-4.064 12.8a9.147 9.147 0 0 1-.646 2.942l.022-.062a6.217 6.217 0 0 1-3.367 3.393l-.041.015a8.965 8.965 0 0 1-2.882.56h-9.806a9.142 9.142 0 0 1-2.959-.581l.063.021a5.647 5.647 0 0 1-2.094-1.374l-.002-.002a5.618 5.618 0 0 1-1.299-1.993l-.013-.039a8.588 8.588 0 0 1-.544-2.888V11.104a8.748 8.748 0 0 1 .564-2.956l-.02.06a5.647 5.647 0 0 1 1.374-2.094l.002-.002A5.744 5.744 0 0 1 8.23 4.8a8.965 8.965 0 0 1 2.882-.56h9.806a9.142 9.142 0 0 1 2.959.581l-.063-.021c.823.311 1.523.78 2.094 1.374l.002.002a5.628 5.628 0 0 1 1.312 2.032c.326.857.528 1.848.56 2.882V16c0 3.296.112 3.632.064 4.896v.016zm-2.56-11.904a3.825 3.825 0 0 0-2.23-2.247l-.026-.009a6.267 6.267 0 0 0-2.096-.353l-.118.001h.006-9.6a6.387 6.387 0 0 0-2.252.431l.044-.015a3.83 3.83 0 0 0-2.247 2.151l-.009.025a6.703 6.703 0 0 0-.336 2.213V11.2v9.6c.016.754.155 1.501.416 2.208a3.825 3.825 0 0 0 2.23 2.247l.026.009c.63.239 1.357.389 2.116.416h9.612a6.387 6.387 0 0 0 2.252-.431l-.044.015a3.83 3.83 0 0 0 2.247-2.23l.009-.026a6.433 6.433 0 0 0 .416-2.208v-9.6a6.07 6.07 0 0 0-.416-2.208v.016zm-9.264 13.104a6.096 6.096 0 0 1-6.096-6.096v-.017V16c0-3.376 2.736-6.112 6.112-6.112S22.15 12.624 22.15 16a6.111 6.111 0 0 1-6.112 6.112h-.017.001zm6.4-11.024a1.441 1.441 0 0 1-.006-2.863l.006-.001a1.441 1.441 0 0 1 .006 2.863l-.006.001z"/></symbol><symbol id="logo-svg" viewBox="0 0 205 32"><path d="M39.872 17.219c0-6.576 4.325-10.391 9.295-10.391a8.236 8.236 0 0 1 5.915 2.565l.003.003-2.34 2.88a4.922 4.922 0 0 0-3.432-1.577h-.009c-2.731 0-4.834 2.394-4.834 6.42s1.885 6.421 4.762 6.421a5.109 5.109 0 0 0 2.152-.512l-.031.013a5.205 5.205 0 0 0 1.723-1.328l.006-.008 2.349 2.816a8.159 8.159 0 0 1-2.808 2.166l-.05.021a8.055 8.055 0 0 1-3.515.73c-5.016-.046-9.185-3.54-9.185-10.217zm16.714 2.257c0-4.888 3.469-7.915 7.064-7.915 4.27 0 6.373 3.128 6.373 7.246.002.665-.059 1.328-.182 1.982h-9.003c.13.959.613 1.786 1.311 2.361l.006.005a3.6 3.6 0 0 0 2.582.808l-.013.001a6.16 6.16 0 0 0 3.264-1.006l-.024.015 1.466 2.696a9.563 9.563 0 0 1-5.307 1.706h-.009c-4.27.018-7.528-2.898-7.528-7.897zm9.659-1.651c0-1.66-.72-2.852-2.494-2.852-1.402 0-2.613.917-2.914 2.852h5.408zm5.598-5.897h3.642l.3 1.944h.11a6.918 6.918 0 0 1 2.14-1.607l.041-.018a6.708 6.708 0 0 1 2.621-.649l.014-.001c3.258 0 4.651 2.32 4.651 6.09v9.337H80.92v-8.805c0-2.164-.574-2.852-1.821-2.852-1.12 0-1.82.532-2.73 1.467v10.19h-4.525V11.928zm17.279 9.602v-6.09h-2.049v-3.338l2.294-.174.518-4.008h3.642v4.008h3.642v3.512h-3.642v6.045c0 1.706.774 2.394 1.939 2.394a4.576 4.576 0 0 0 1.46-.295l-.032.011.702 3.246c-.994.348-2.139.549-3.331.55h-.001c-3.678 0-5.143-2.357-5.143-5.861zm10.36-9.602h3.641l.318 2.642h.11c1.093-2.018 2.731-3.008 4.251-3.008a4.198 4.198 0 0 1 1.849.312l-.028-.01-.783 3.842a6.106 6.106 0 0 0-1.615-.238h-.005c-1.129 0-2.503.734-3.305 2.752v8.75h-4.433V11.928zm10.487 10.905c0-3.182 2.503-4.898 8.43-5.503a2.09 2.09 0 0 0-1.446-2.107l-.015-.004a2.019 2.019 0 0 0-.917-.07l.011-.001a8.132 8.132 0 0 0-3.944 1.359l.029-.018-1.584-2.935a12.034 12.034 0 0 1 6.357-1.99h.015c3.832 0 5.954 2.202 5.954 6.833v8.63h-3.642l-.318-1.55h-.11a6.543 6.543 0 0 1-4.347 1.916h-.014a4.273 4.273 0 0 1-3.222-1.292l-.001-.001a4.345 4.345 0 0 1-1.236-3.276v.011zm8.429-.192v-2.642c-3.15.43-4.178 1.338-4.178 2.476 0 .972.655 1.449 1.711 1.449a3.322 3.322 0 0 0 1.389-.382l-.018.009c.435-.23.801-.536 1.091-.904l.005-.007zm7.566-.313V5.71h4.442v16.802c0 .917.437 1.266.801 1.266.184.006.369-.015.546-.064l.528 3.302a5.604 5.604 0 0 1-2.24.376h.009c-3.041 0-4.087-2.008-4.087-5.063zm10.095-16.014h3.15l3.942 11.07c.491 1.412.965 2.87 1.456 4.31h.128c.491-1.44.91-2.898 1.42-4.31l3.896-11.07h3.15v20.71h-2.43v-11.4c0-1.834.2-4.293.328-6.127h-.128l-1.63 4.724-3.869 10.712h-1.73l-3.887-10.712-1.63-4.724h-.127c.127 1.834.328 4.32.328 6.127v11.4h-2.367V6.314zm21.066 15.088v-9.713h2.577v9.382c0 2.852.865 4.072 2.876 4.072 1.557 0 2.631-.77 4.07-2.577V11.688h2.576v15.334h-2.121l-.218-2.403h-.091c-1.411 1.67-2.931 2.752-5.016 2.752-3.232.027-4.652-2.054-4.652-5.97zm14.928 3.87 1.266-1.706a6.827 6.827 0 0 0 4.488 1.834h.009c1.994 0 2.986-1.073 2.986-2.384 0-1.578-1.821-2.275-3.478-2.908-2.13-.779-4.552-1.834-4.552-4.43 0-2.449 1.949-4.347 5.244-4.347a7.697 7.697 0 0 1 4.748 1.726l-.014-.011-1.229 1.67a5.7 5.7 0 0 0-3.466-1.366h-.012c-1.912 0-2.794 1.027-2.794 2.201 0 1.458 1.647 2.009 3.377 2.66 2.194.834 4.643 1.734 4.643 4.65 0 2.485-1.966 4.586-5.554 4.586a9.09 9.09 0 0 1-5.675-2.184l.012.01zm13.71-18.416c.088-.41.312-.777.636-1.04a1.816 1.816 0 0 1 2.921 1.028l.002.012a1.834 1.834 0 0 1-.633 1.037l-.003.003c-.309.253-.708.406-1.144.406s-.834-.153-1.147-.409l.003.003a1.836 1.836 0 0 1-.634-1.028l-.002-.012zm.474 4.834h2.567v15.334h-2.567V11.688zm5.99 7.685c0-5.118 3.432-8.062 7.283-8.062a6.33 6.33 0 0 1 4.452 1.835l-.001-.001-1.329 1.642a4.37 4.37 0 0 0-3.006-1.357h-.008c-2.731 0-4.779 2.394-4.779 5.906s1.912 5.861 4.706 5.861a5.487 5.487 0 0 0 3.608-1.488l-.003.003 1.11 1.733a7.332 7.332 0 0 1-4.911 1.954h-.004c-4.078 0-7.119-2.944-7.119-8.025zM0 16.037v.049c0 4.077 1.526 7.798 4.038 10.623l-.014-.016a15.741 15.741 0 0 0 9.991 5.206l.072.007a15.713 15.713 0 0 0 10.943-2.901c3.109-2.276 5.341-5.59 6.192-9.423l.02-.106h-4.186a.769.769 0 0 0-.383.202 6.872 6.872 0 0 0-.804.993l-.016.025a.714.714 0 0 1-.619.36l-.057-.002h.003c-.328 0-.664 0-1.019.046v1.376c.254.082.528.156.792.256a.604.604 0 0 1 .381.702l.001-.004c0 .339 0 .688-.364.853-.404.169-.873.268-1.366.268s-.962-.098-1.39-.277l.024.009a.585.585 0 0 1-.373-.664l-.001.004c0-.349-.073-.734.364-.917.273-.102.546-.184.829-.275v-1.284l-4.498.21v1.128l.118.056c.984.293.829.476.792 1.366 0 .156-.254.367-.437.45a2.705 2.705 0 0 1-2.002 0c-.546-.184-.464-.632-.483-1.054l-.001-.038c0-.152.052-.292.139-.403l-.001.001a.648.648 0 0 1 .388-.239l.004-.001c.13-.053.264-.098.4-.138v-1.1l-4.378.202v.917l.291.083c1.01.266.856.495.819 1.293 0 .156-.2.358-.355.431a3.338 3.338 0 0 1-2.643-.008l.022.008c-.446-.174-.355-.569-.373-.918a.59.59 0 0 1 .396-.64l.004-.001c.246-.101.492-.165.756-.248v-.826l-5.298.258V10.205l5.298.257v-.825c-.264-.083-.51-.147-.756-.248a.585.585 0 0 1-.399-.645v.003c0-.358-.074-.752.373-.917.386-.171.837-.271 1.311-.271s.925.1 1.332.28l-.021-.008c.155.074.355.275.355.422 0 .808.191 1.037-.819 1.302l-.291.083v.917l4.378.202V9.656l-.4-.137a.649.649 0 0 1-.391-.238l-.001-.001a.648.648 0 0 1-.137-.401l.001-.041v.002c0-.431-.064-.871.482-1.054.297-.121.641-.192 1.001-.192s.705.07 1.019.198l-.018-.007c.182.082.428.294.437.45 0 .917.192 1.064-.792 1.366l-.118.055v1.128l4.498.21V9.618c-.282-.091-.556-.174-.829-.274-.437-.156-.346-.542-.364-.918a.59.59 0 0 1 .368-.659l.004-.001c.404-.169.873-.268 1.366-.268s.962.098 1.39.277l-.024-.009c.41.165.355.514.364.853a.61.61 0 0 1-.378.695l-.004.001-.792.257v1.376c.354 0 .691.055 1.019 0 .017-.002.038-.002.058-.002.263 0 .492.144.613.357l.002.003c.24.366.514.706.819 1.018.108.098.24.168.382.202h4.187c-.871-3.939-3.102-7.252-6.166-9.497l-.045-.031A15.595 15.595 0 0 0 15.801.003c-.603 0-1.199.034-1.784.1l.072-.007A15.767 15.767 0 0 0 4.04 5.288l-.014.016A15.919 15.919 0 0 0-.002 15.915v.043-.002.082z"/></symbol><symbol id="twitter" viewBox="0 0 37 32"><path d="M35.58 4.996a14.68 14.68 0 0 1-4.122 1.13l-.074.008a7.383 7.383 0 0 0 3.203-3.984l.015-.052a14.65 14.65 0 0 1-4.64 1.778 7.288 7.288 0 0 0-12.434 6.699l-.011-.05A20.682 20.682 0 0 1 2.524 2.936l-.029-.037a7.309 7.309 0 0 0-.978 3.675v.019a7.261 7.261 0 0 0 3.21 6.032l.026.016a7.177 7.177 0 0 1-3.343-.925l.036.019v.089a7.292 7.292 0 0 0 5.82 7.103l.047.008a6.823 6.823 0 0 1-1.951.302h-.004a8.8 8.8 0 0 1-1.421-.132l.052.008c.966 2.911 3.637 4.986 6.802 5.049h.007a14.517 14.517 0 0 1-9.033 3.126c-.613 0-1.218-.038-1.811-.111l.071.007c3.151 2.062 7.011 3.289 11.157 3.289h.026-.001l.214.001c11.38 0 20.604-9.225 20.604-20.604l-.001-.17v.009-.942a15.111 15.111 0 0 0 3.521-3.714l.034-.055z"/></symbol><symbol id="youtube" viewBox="0 0 46 32"><path d="M44.018 11.434a16.916 16.916 0 0 0-1.865-8.355l.045.095a5.84 5.84 0 0 0-3.404-1.994l-.036-.006C34.514.766 29.582.533 24.596.533c-.906 0-1.811.008-2.713.023l.136-.002A158.845 158.845 0 0 0 4.722 1.2l.617-.046a5.75 5.75 0 0 0-2.923 1.482l.003-.002c-1.8 1.66-2 4.5-2.2 6.9-.139 1.938-.218 4.2-.218 6.48s.079 4.542.234 6.782l-.017-.302c.064 1.45.279 2.82.63 4.134l-.03-.134a6.25 6.25 0 0 0 1.42 2.72 5.7 5.7 0 0 0 2.944 1.554l.036.006c4.312.532 8.656.754 13 .66 7 .1 13.14 0 20.4-.56a5.765 5.765 0 0 0 3.061-1.561l-.001.001c.56-.56.978-1.246 1.22-2 .66-1.958 1.041-4.213 1.041-6.556l-.002-.256v.013c.08-1.12.08-7.88.08-9.08zm-26.52 10.28V9.334l11.84 6.22c-3.32 1.84-7.7 3.92-11.84 6.16z"/></symbol><symbol id="arrow-up" viewBox="0 0 24 24"><path d="M6 17.59 7.41 19 12 14.42 16.59 19 18 17.59l-6-6-6 6Z"/><path d="m6 11 1.41 1.41L12 7.83l4.59 4.58L18 11l-6-6-6 6Z"/></symbol><symbol id="check" viewBox="0 0 512 512"><path d="M470.6 105.4c12.5 12.5 12.5 32.8 0 45.3l-256 256c-12.5 12.5-32.8 12.5-45.3 0l-128-128c-12.5-12.5-12.5-32.8 0-45.3s32.8-12.5 45.3 0L192 338.7l233.4-233.3c12.5-12.5 32.8-12.5 45.3 0z"/></symbol><symbol id="location" viewBox="0 0 576 512"><path d="M408 120c0 54.6-73.1 151.9-105.2 192-7.7 9.6-22 9.6-29.6 0C241.1 271.9 168 174.6 168 120 168 53.7 221.7 0 288 0s120 53.7 120 120zm8 80.4c3.5-6.9 6.7-13.8 9.6-20.6.5-1.2 1-2.5 1.5-3.7l116-46.4c15.8-6.3 32.9 5.3 32.9 22.3v270.8c0 9.8-6 18.6-15.1 22.3L416 503V200.4zm-278.4-62.1c2.4 14.1 7.2 28.3 12.8 41.5 2.9 6.8 6.1 13.7 9.6 20.6v251.4L32.9 502.7C17.1 509 0 497.4 0 480.4V209.6c0-9.8 6-18.6 15.1-22.3l122.6-49zM327.8 332c13.9-17.4 35.7-45.7 56.2-77v249.3l-192-54.9V255c20.5 31.3 42.3 59.6 56.2 77 20.5 25.6 59.1 25.6 79.6 0zM288 152a40 40 0 1 0 0-80 40 40 0 1 0 0 80z"/></symbol><symbol id="earth" viewBox="0 0 512 512"><path d="m266.3 48.3-33.8 25.3c-5.4 4-8.5 10.4-8.5 17.1v9.1c0 6.8 5.5 12.3 12.3 12.3 2.4 0 4.8-.7 6.8-2.1l41.8-27.9c2-1.3 4.4-2.1 6.8-2.1h1c6.2 0 11.3 5.1 11.3 11.3 0 3-1.2 5.9-3.3 8l-19.9 19.9a53.03 53.03 0 0 1-20.7 12.8l-26.5 8.8c-5.8 1.9-9.6 7.3-9.6 13.4 0 3.7-1.5 7.3-4.1 10L202 182.1c-6.4 6.4-9.9 15-9.9 24v4.3c0 16.4 13.6 29.7 29.9 29.7 11 0 21.2-6.2 26.1-16l4-8.1c2.4-4.8 7.4-7.9 12.8-7.9 4.5 0 8.7 2.1 11.4 5.7l16.3 21.7c2.1 2.9 5.5 4.5 9.1 4.5 8.4 0 13.9-8.9 10.1-16.4l-1.1-2.3c-3.5-7 0-15.5 7.5-18l21.2-7.1c7.6-2.5 12.7-9.6 12.7-17.6 0-10.3 8.3-18.6 18.6-18.6H400c8.8 0 16 7.2 16 16s-7.2 16-16 16h-20.7c-7.2 0-14.2 2.9-19.3 8l-4.7 4.7c-2.1 2.1-3.3 5-3.3 8 0 6.2 5.1 11.3 11.3 11.3h11.3c6 0 11.8 2.4 16 6.6l6.5 6.5c1.8 1.8 2.8 4.3 2.8 6.8s-1 5-2.8 6.8l-7.5 7.5c-3.6 3.8-5.6 8.7-5.6 13.8s2 10 5.7 13.7L408 304c10.2 10.2 24.1 16 38.6 16h7.4c6.5-20.2 10-41.7 10-64 0-111.4-87.6-202.4-197.7-207.7zm172 307.9c-3.7-2.6-8.2-4.1-13-4.1-6 0-11.8-2.4-16-6.6L396 332c-7.7-7.7-18-12-28.9-12-9.7 0-19.2-3.5-26.6-9.8L314 287.4c-11.6-9.9-26.4-15.4-41.6-15.4h-21c-12.6 0-25 3.7-35.5 10.7L188.5 301c-17.8 11.9-28.5 31.9-28.5 53.3v3.2c0 17 6.7 33.3 18.7 45.3l16 16c8.5 8.5 20 13.3 32 13.3H248c13.3 0 24 10.7 24 24 0 2.5.4 5 1.1 7.3 71.3-5.8 132.5-47.6 165.2-107.2zM0 256a256 256 0 1 1 512 0 256 256 0 1 1-512 0zm187.3-155.3c-6.2-6.2-16.4-6.2-22.6 0l-32 32c-6.2 6.2-6.2 16.4 0 22.6s16.4 6.2 22.6 0l32-32c6.2-6.2 6.2-16.4 0-22.6z"/></symbol><symbol id="phone" viewBox="0 0 512 512"><path d="M164.9 24.6c-7.7-18.6-28-28.5-47.4-23.2l-88 24C12.1 30.2 0 46 0 64c0 247.4 200.6 448 448 448 18 0 33.8-12.1 38.6-29.5l24-88c5.3-19.4-4.6-39.7-23.2-47.4l-96-40c-16.3-6.8-35.2-2.1-46.3 11.6L304.7 368c-70.4-33.3-127.4-90.3-160.7-160.7l49.3-40.3c13.7-11.2 18.4-30 11.6-46.3l-40-96z"/></symbol><symbol id="email" viewBox="0 0 512 512"><path d="M498.1 5.6c10.1 7 15.4 19.1 13.5 31.2l-64 416c-1.5 9.7-7.4 18.2-16 23s-18.9 5.4-28 1.6L284 427.7l-68.5 74.1c-8.9 9.7-22.9 12.9-35.2 8.1S160 493.2 160 480v-83.6c0-4 1.5-7.8 4.2-10.7l167.6-182.9c5.8-6.3 5.6-16-.4-22s-15.7-6.4-22-.7L106 360.8l-88.3-44.2C7.1 311.3.3 300.7 0 288.9s5.9-22.8 16.1-28.7l448-256c10.7-6.1 23.9-5.5 34 1.4z"/></symbol><symbol id="search" viewBox="0 0 24 24"><path d="M15.755 14.255h-.79l-.28-.27a6.471 6.471 0 0 0 1.57-4.23 6.5 6.5 0 1 0-6.5 6.5c1.61 0 3.09-.59 4.23-1.57l.27.28v.79l5 4.99 1.49-1.49-4.99-5Zm-6 0c-2.49 0-4.5-2.01-4.5-4.5s2.01-4.5 4.5-4.5 4.5 2.01 4.5 4.5-2.01 4.5-4.5 4.5Z"/></symbol><symbol id="arrow2" viewBox="0 0 24 24"><path d="M256 0a256 256 0 1 0 0 512 256 256 0 1 0 0-512zM127 281c-9.4-9.4-9.4-24.6 0-33.9s24.6-9.4 33.9 0l71 71L232 136c0-13.3 10.7-24 24-24s24 10.7 24 24v182.1l71-71c9.4-9.4 24.6-9.4 33.9 0s9.4 24.6 0 33.9L273 393c-9.4 9.4-24.6 9.4-33.9 0L127 281z"/></symbol></defs></svg>