<svg xmlns="http://www.w3.org/2000/svg" width="50" height="50" fill="none"><g clip-path="url(#a)"><path fill="#fff" fill-rule="evenodd" d="M3.125 25a21.875 21.875 0 1 0 43.75 0 21.875 21.875 0 0 0-43.75 0ZM50 25a25 25 0 1 1-50 0 25 25 0 0 1 50 0ZM26.562 14.062a1.563 1.563 0 0 0-3.125 0v18.104l-6.706-6.71a1.565 1.565 0 0 0-2.212 2.213l9.375 9.375a1.564 1.564 0 0 0 2.212 0l9.375-9.375a1.565 1.565 0 0 0-2.212-2.213l-6.706 6.71V14.063Z" clip-rule="evenodd"/></g><defs><clipPath id="a"><path fill="#fff" d="M0 0h50v50H0z"/></clipPath></defs></svg>