<svg aria-hidden="true" style="position: absolute; width: 0; height: 0; overflow: hidden;" version="1.1" xmlns="http://www.w3.org/2000/svg" xmlns:xlink="http://www.w3.org/1999/xlink">
<defs>

<symbol id="account" viewBox="0 0 32 32">
<path  d="M21.821 17.135c2.238-1.773 3.661-4.49 3.661-7.54 0-5.299-4.296-9.595-9.595-9.595s-9.595 4.296-9.595 9.595c0 3.050 1.423 5.767 3.641 7.525l0.020 0.015c-5.395 2.203-9.265 7.119-9.938 13.006l-0.007 0.074c-0.006 0.053-0.010 0.114-0.010 0.176 0 0.889 0.72 1.609 1.609 1.609 0.827 0 1.508-0.623 1.599-1.426l0.001-0.007c0.746-6.421 6.152-11.359 12.713-11.359s11.967 4.938 12.707 11.299l0.006 0.060c0.092 0.805 0.769 1.424 1.59 1.424 0.003 0 0.007 0 0.010-0h0.174c0.801-0.096 1.416-0.771 1.416-1.589 0-0.060-0.003-0.119-0.010-0.178l0.001 0.007c-0.684-5.977-4.575-10.903-9.886-13.058l-0.107-0.038zM15.888 16c-3.533 0-6.397-2.864-6.397-6.397s2.864-6.397 6.397-6.397v0c3.533 0 6.397 2.864 6.397 6.397s-2.864 6.397-6.397 6.397v0z"></path>
</symbol>
<symbol id="buy" viewBox="0 0 32 32">
<path  d="M30.353 22.373h-22.365c-0.883 0-1.598-0.715-1.598-1.598s0.715-1.598 1.598-1.598v0h16.679c2.233-0 4.109-1.527 4.641-3.593l0.007-0.033 2.636-10.373c0.031-0.118 0.049-0.253 0.049-0.392 0-0.372-0.127-0.713-0.34-0.985l0.003 0.003c-0.295-0.372-0.747-0.609-1.255-0.609-0.019 0-0.038 0-0.057 0.001l0.003-0h-22.749c-0.677-1.873-2.436-3.189-4.505-3.196h-1.502c-0.883 0-1.598 0.715-1.598 1.598s0.715 1.598 1.598 1.598v0h1.501c0.014-0 0.031-0.001 0.048-0.001 0.747 0 1.374 0.512 1.549 1.204l0.002 0.011 0.095 0.767 2.764 10.804c-2.555 0.118-4.581 2.218-4.581 4.791 0 0.077 0.002 0.153 0.005 0.229l-0-0.011c0.119 2.556 2.22 4.583 4.795 4.583 0.075 0 0.149-0.002 0.223-0.005l-0.011 0h0.287c-0.182 0.486-0.287 1.048-0.287 1.635 0 2.648 2.146 4.795 4.794 4.796h0c0.001 0 0.002 0 0.003 0 2.646 0 4.791-2.145 4.791-4.791 0-0.589-0.106-1.152-0.3-1.673l0.011 0.033h3.771c-0.182 0.486-0.287 1.048-0.287 1.634 0 1.839 1.035 3.437 2.554 4.242l0.026 0.013c0.643 0.342 1.406 0.543 2.215 0.543 2.646 0 4.791-2.145 4.791-4.791 0-0.589-0.106-1.153-0.301-1.675l0.011 0.033h0.288c0.883 0 1.598-0.715 1.598-1.598s-0.715-1.598-1.598-1.598v0zM28.308 6.392l-2.093 8.375c-0.178 0.703-0.805 1.214-1.552 1.214-0.016 0-0.031-0-0.047-0.001l0.002 0h-13.787l-2.397-9.587h19.873zM12.78 28.765c-0.014 0-0.030 0.001-0.046 0.001-0.882 0-1.597-0.715-1.597-1.597s0.715-1.597 1.597-1.597c0.016 0 0.032 0 0.049 0.001l-0.002-0c0.882 0 1.597 0.715 1.597 1.597s-0.715 1.597-1.597 1.597v0zM25.561 28.765c-0.014 0-0.030 0.001-0.046 0.001-0.882 0-1.597-0.715-1.597-1.597s0.715-1.597 1.597-1.597c0.016 0 0.032 0 0.049 0.001l-0.002-0c0.882 0 1.597 0.715 1.597 1.597s-0.715 1.597-1.597 1.597v0z"></path>
</symbol>
<symbol id="facebook" viewBox="0 0 34 32">
<path  d="M30.262 0h-28.48c-0.972 0-1.76 0.788-1.76 1.76v0 28.48c0 0.972 0.788 1.76 1.76 1.76v0h15.328v-12.4h-4.16v-4.8h4.16v-3.6c-0.019-0.177-0.030-0.383-0.030-0.591 0-3.216 2.607-5.824 5.824-5.824 0.146 0 0.29 0.005 0.433 0.016l-0.019-0.001c0.059-0 0.129-0.001 0.199-0.001 1.243 0 2.47 0.070 3.676 0.206l-0.148-0.014v4.32h-2.544c-2.016 0-2.4 0.96-2.4 2.352v3.088h4.8l-0.624 4.8h-4.176v12.448h8.16c0.972-0.001 1.759-0.788 1.76-1.76v-28.48c0-0.972-0.788-1.76-1.76-1.76v0z"></path>
</symbol>
<symbol id="instagram" viewBox="0 0 34 32">
<path d="M16.022 12.032c-2.191 0-3.968 1.777-3.968 3.968s1.777 3.968 3.968 3.968v0c2.191 0 3.968-1.777 3.968-3.968s-1.777-3.968-3.968-3.968v0zM31.91 8.112c-0.009-1.302-0.255-2.543-0.696-3.687l0.024 0.071c-0.664-1.716-1.996-3.048-3.668-3.697l-0.044-0.015c-1.073-0.417-2.314-0.663-3.612-0.672l-0.004-0c-2.064-0.112-2.672-0.112-7.888-0.112s-5.824 0-7.888 0.112c-1.302 0.009-2.543 0.255-3.687 0.696l0.071-0.024c-1.716 0.664-3.048 1.996-3.697 3.668l-0.015 0.044c-0.417 1.073-0.663 2.314-0.672 3.612l-0 0.004c-0.112 2.064-0.112 2.672-0.112 7.888s0 5.824 0.112 7.888c0.019 1.309 0.264 2.554 0.697 3.708l-0.025-0.076c0.32 0.842 0.816 1.606 1.456 2.24 0.637 0.643 1.408 1.141 2.256 1.456 1.073 0.417 2.314 0.663 3.612 0.672l0.004 0c2.064 0.112 2.672 0.112 7.888 0.112s5.824 0 7.888-0.112c1.302-0.009 2.543-0.255 3.687-0.696l-0.071 0.024c0.882-0.333 1.635-0.829 2.256-1.456l0-0c0.64-0.634 1.136-1.398 1.456-2.24 0.417-1.078 0.662-2.325 0.672-3.628l0-0.004c0.112-2.064 0.112-2.672 0.112-7.888s0-5.824-0.112-7.888zM27.846 20.912c-0.056 1.050-0.28 2.032-0.646 2.942l0.022-0.062c-0.641 1.555-1.853 2.767-3.367 3.393l-0.041 0.015c-0.857 0.326-1.848 0.528-2.882 0.56l-0.014 0h-9.792c-1.048-0.032-2.039-0.234-2.959-0.581l0.063 0.021c-0.823-0.311-1.523-0.78-2.094-1.374l-0.002-0.002c-0.565-0.559-1.011-1.237-1.299-1.993l-0.013-0.039c-0.328-0.859-0.526-1.852-0.544-2.888l-0-0.008v-9.792c0.018-1.044 0.216-2.037 0.564-2.956l-0.020 0.060c0.311-0.823 0.78-1.523 1.374-2.094l0.002-0.002c0.576-0.576 1.269-1.024 2.032-1.312 0.857-0.326 1.848-0.528 2.882-0.56l0.014-0h9.792c1.048 0.032 2.039 0.234 2.959 0.581l-0.063-0.021c0.823 0.311 1.523 0.78 2.094 1.374l0.002 0.002c0.579 0.574 1.027 1.267 1.312 2.032 0.326 0.857 0.528 1.848 0.56 2.882l0 0.014v4.896c0 3.296 0.112 3.632 0.064 4.896v0.016zM25.286 9.008c-0.394-1.049-1.207-1.862-2.23-2.247l-0.026-0.009c-0.625-0.224-1.345-0.353-2.096-0.353-0.039 0-0.079 0-0.118 0.001l0.006-0h-9.6c-0.796 0.008-1.553 0.16-2.252 0.431l0.044-0.015c-1.035 0.377-1.843 1.16-2.247 2.151l-0.009 0.025c-0.213 0.632-0.337 1.361-0.337 2.118 0 0.032 0 0.063 0.001 0.095l-0-0.005v9.6c0.016 0.754 0.155 1.501 0.416 2.208 0.394 1.049 1.207 1.862 2.23 2.247l0.026 0.009c0.63 0.239 1.357 0.389 2.116 0.416l0.012 0h9.6c0.796-0.008 1.553-0.16 2.252-0.431l-0.044 0.015c1.049-0.395 1.861-1.207 2.247-2.23l0.009-0.026c0.267-0.706 0.408-1.453 0.416-2.208v-9.6c0-0.755-0.141-1.504-0.416-2.208v0.016zM16.022 22.112c0 0 0 0-0 0-3.367 0-6.096-2.729-6.096-6.096 0-0.006 0-0.011 0-0.017v0.001c0-3.376 2.736-6.112 6.112-6.112s6.112 2.736 6.112 6.112c0 3.376-2.736 6.112-6.112 6.112-0.006 0-0.011 0-0.017-0h0.001zM22.422 11.088c-0.727-0.079-1.288-0.69-1.288-1.432s0.561-1.353 1.282-1.431l0.006-0.001c0.727 0.079 1.288 0.69 1.288 1.432s-0.561 1.353-1.282 1.431l-0.006 0.001z"></path>
</symbol>
</symbol>
<symbol id="twitter" viewBox="0 0 37 32">
<path  d="M35.58 4.996c-1.221 0.545-2.638 0.945-4.122 1.13l-0.074 0.008c1.511-0.914 2.648-2.316 3.203-3.984l0.015-0.052c-1.435 0.853-3.004 1.454-4.64 1.778-1.336-1.446-3.242-2.348-5.358-2.348-4.026 0-7.289 3.263-7.289 7.289 0 0.606 0.074 1.195 0.213 1.758l-0.011-0.050c-6.073-0.316-11.414-3.206-14.993-7.589l-0.029-0.037c-0.615 1.055-0.978 2.323-0.978 3.675 0 0.002 0 0.003 0 0.005v-0c0 0.004 0 0.009 0 0.014 0 2.512 1.273 4.726 3.21 6.032l0.026 0.016c-1.219-0.034-2.353-0.366-3.343-0.925l0.036 0.019v0.089c0.019 3.507 2.511 6.426 5.82 7.103l0.047 0.008c-0.583 0.184-1.255 0.294-1.951 0.302l-0.004 0c-0.488-0.006-0.961-0.051-1.421-0.132l0.052 0.008c0.966 2.911 3.637 4.986 6.802 5.049l0.007 0c-2.46 1.949-5.609 3.126-9.033 3.126-0.613 0-1.218-0.038-1.811-0.111l0.071 0.007c3.151 2.062 7.011 3.289 11.157 3.289 0.009 0 0.018 0 0.026-0h-0.001c0.064 0.001 0.139 0.001 0.214 0.001 11.38 0 20.604-9.225 20.604-20.604 0-0.057-0-0.113-0.001-0.17l0 0.009v-0.942c1.397-1.049 2.577-2.297 3.521-3.714l0.034-0.055z"></path>
</symbol>
<symbol id="youtube" viewBox="0 0 46 32">
<path  d="M44.018 11.434c0.006-0.175 0.010-0.381 0.010-0.587 0-2.799-0.676-5.44-1.875-7.768l0.045 0.095c-0.859-1.022-2.049-1.742-3.404-1.994l-0.036-0.006c-4.244-0.408-9.176-0.641-14.162-0.641-0.906 0-1.811 0.008-2.713 0.023l0.136-0.002c-0.806-0.015-1.756-0.023-2.708-0.023-4.919 0-9.785 0.226-14.589 0.669l0.617-0.046c-1.143 0.213-2.138 0.738-2.923 1.482l0.003-0.002c-1.8 1.66-2 4.5-2.2 6.9-0.139 1.938-0.218 4.2-0.218 6.48s0.079 4.542 0.234 6.782l-0.017-0.302c0.064 1.45 0.279 2.82 0.63 4.134l-0.030-0.134c0.24 1.010 0.728 1.946 1.42 2.72 0.79 0.783 1.807 1.337 2.944 1.554l0.036 0.006c4.312 0.532 8.656 0.754 13 0.66 7 0.1 13.14 0 20.4-0.56 1.202-0.21 2.249-0.766 3.061-1.561l-0.001 0.001c0.56-0.56 0.978-1.246 1.22-2 0.66-1.958 1.041-4.213 1.041-6.556 0-0.086-0.001-0.171-0.002-0.256l0 0.013c0.080-1.12 0.080-7.88 0.080-9.080zM17.498 21.714v-12.38l11.84 6.22c-3.32 1.84-7.7 3.92-11.84 6.16z"></path>
</symbol>
<symbol id="arrow-up" viewBox="0 0 24 24">
<path d="M6 17.59 7.41 19 12 14.42 16.59 19 18 17.59l-6-6-6 6Z"/><path d="m6 11 1.41 1.41L12 7.83l4.59 4.58L18 11l-6-6-6 6Z"/>
</symbol>

<symbol id="check" viewBox="0 0 512 512">
<path d="M470.6 105.4c12.5 12.5 12.5 32.8 0 45.3l-256 256c-12.5 12.5-32.8 12.5-45.3 0l-128-128c-12.5-12.5-12.5-32.8 0-45.3s32.8-12.5 45.3 0L192 338.7 425.4 105.4c12.5-12.5 32.8-12.5 45.3 0z"/></symbol>

<symbol id="location" viewBox="0 0 576 512"><path d="M408 120c0 54.6-73.1 151.9-105.2 192c-7.7 9.6-22 9.6-29.6 0C241.1 271.9 168 174.6 168 120C168 53.7 221.7 0 288 0s120 53.7 120 120zm8 80.4c3.5-6.9 6.7-13.8 9.6-20.6c.5-1.2 1-2.5 1.5-3.7l116-46.4C558.9 123.4 576 135 576 152V422.8c0 9.8-6 18.6-15.1 22.3L416 503V200.4zM137.6 138.3c2.4 14.1 7.2 28.3 12.8 41.5c2.9 6.8 6.1 13.7 9.6 20.6V451.8L32.9 502.7C17.1 509 0 497.4 0 480.4V209.6c0-9.8 6-18.6 15.1-22.3l122.6-49zM327.8 332c13.9-17.4 35.7-45.7 56.2-77V504.3L192 449.4V255c20.5 31.3 42.3 59.6 56.2 77c20.5 25.6 59.1 25.6 79.6 0zM288 152a40 40 0 1 0 0-80 40 40 0 1 0 0 80z"/></symbol>

<symbol id="earth" viewBox="0 0 512 512"><path d="M266.3 48.3L232.5 73.6c-5.4 4-8.5 10.4-8.5 17.1v9.1c0 6.8 5.5 12.3 12.3 12.3c2.4 0 4.8-.7 6.8-2.1l41.8-27.9c2-1.3 4.4-2.1 6.8-2.1h1c6.2 0 11.3 5.1 11.3 11.3c0 3-1.2 5.9-3.3 8l-19.9 19.9c-5.8 5.8-12.9 10.2-20.7 12.8l-26.5 8.8c-5.8 1.9-9.6 7.3-9.6 13.4c0 3.7-1.5 7.3-4.1 10l-17.9 17.9c-6.4 6.4-9.9 15-9.9 24v4.3c0 16.4 13.6 29.7 29.9 29.7c11 0 21.2-6.2 26.1-16l4-8.1c2.4-4.8 7.4-7.9 12.8-7.9c4.5 0 8.7 2.1 11.4 5.7l16.3 21.7c2.1 2.9 5.5 4.5 9.1 4.5c8.4 0 13.9-8.9 10.1-16.4l-1.1-2.3c-3.5-7 0-15.5 7.5-18l21.2-7.1c7.6-2.5 12.7-9.6 12.7-17.6c0-10.3 8.3-18.6 18.6-18.6H400c8.8 0 16 7.2 16 16s-7.2 16-16 16H379.3c-7.2 0-14.2 2.9-19.3 8l-4.7 4.7c-2.1 2.1-3.3 5-3.3 8c0 6.2 5.1 11.3 11.3 11.3h11.3c6 0 11.8 2.4 16 6.6l6.5 6.5c1.8 1.8 2.8 4.3 2.8 6.8s-1 5-2.8 6.8l-7.5 7.5C386 262 384 266.9 384 272s2 10 5.7 13.7L408 304c10.2 10.2 24.1 16 38.6 16H454c6.5-20.2 10-41.7 10-64c0-111.4-87.6-202.4-197.7-207.7zm172 307.9c-3.7-2.6-8.2-4.1-13-4.1c-6 0-11.8-2.4-16-6.6L396 332c-7.7-7.7-18-12-28.9-12c-9.7 0-19.2-3.5-26.6-9.8L314 287.4c-11.6-9.9-26.4-15.4-41.6-15.4H251.4c-12.6 0-25 3.7-35.5 10.7L188.5 301c-17.8 11.9-28.5 31.9-28.5 53.3v3.2c0 17 6.7 33.3 18.7 45.3l16 16c8.5 8.5 20 13.3 32 13.3H248c13.3 0 24 10.7 24 24c0 2.5 .4 5 1.1 7.3c71.3-5.8 132.5-47.6 165.2-107.2zM0 256a256 256 0 1 1 512 0A256 256 0 1 1 0 256zM187.3 100.7c-6.2-6.2-16.4-6.2-22.6 0l-32 32c-6.2 6.2-6.2 16.4 0 22.6s16.4 6.2 22.6 0l32-32c6.2-6.2 6.2-16.4 0-22.6z"/></symbol>

<symbol id="phone" viewBox="0 0 512 512"><path d="M164.9 24.6c-7.7-18.6-28-28.5-47.4-23.2l-88 24C12.1 30.2 0 46 0 64C0 311.4 200.6 512 448 512c18 0 33.8-12.1 38.6-29.5l24-88c5.3-19.4-4.6-39.7-23.2-47.4l-96-40c-16.3-6.8-35.2-2.1-46.3 11.6L304.7 368C234.3 334.7 177.3 277.7 144 207.3L193.3 167c13.7-11.2 18.4-30 11.6-46.3l-40-96z"/></symbol>

<symbol id="email" viewBox="0 0 512 512"><path d="M498.1 5.6c10.1 7 15.4 19.1 13.5 31.2l-64 416c-1.5 9.7-7.4 18.2-16 23s-18.9 5.4-28 1.6L284 427.7l-68.5 74.1c-8.9 9.7-22.9 12.9-35.2 8.1S160 493.2 160 480V396.4c0-4 1.5-7.8 4.2-10.7L331.8 202.8c5.8-6.3 5.6-16-.4-22s-15.7-6.4-22-.7L106 360.8 17.7 316.6C7.1 311.3 .3 300.7 0 288.9s5.9-22.8 16.1-28.7l448-256c10.7-6.1 23.9-5.5 34 1.4z"/></symbol>

<symbol id="search" viewBox="0 0 24 24"><path d="M15.755 14.255h-.79l-.28-.27a6.471 6.471 0 0 0 1.57-4.23 6.5 6.5 0 1 0-6.5 6.5c1.61 0 3.09-.59 4.23-1.57l.27.28v.79l5 4.99 1.49-1.49-4.99-5Zm-6 0c-2.49 0-4.5-2.01-4.5-4.5s2.01-4.5 4.5-4.5 4.5 2.01 4.5 4.5-2.01 4.5-4.5 4.5Z"></path>
</symbol>

<symbol id="arrow-down" viewBox="0 0 24 24">
    <path d="M256 0a256 256 0 1 0 0 512A256 256 0 1 0 256 0zM127 281c-9.4-9.4-9.4-24.6 0-33.9s24.6-9.4 33.9 0l71 71L232 136c0-13.3 10.7-24 24-24s24 10.7 24 24l0 182.1 71-71c9.4-9.4 24.6-9.4 33.9 0s9.4 24.6 0 33.9L273 393c-9.4 9.4-24.6 9.4-33.9 0L127 281z"/>
</symbol>

<symbol id="arrow-down-2"  viewBox="0 0 24 24"><path d="m2.009 11.998c0-5.518 4.48-9.998 9.998-9.998s9.998 4.48 9.998 9.998c0 5.517-4.48 9.997-9.998 9.997s-9.998-4.48-9.998-9.997zm1.5 0c0 4.69 3.808 8.497 8.498 8.497s8.498-3.807 8.498-8.497-3.808-8.498-8.498-8.498-8.498 3.808-8.498 8.498zm4.716 1.528s1.505 1.501 3.259 3.254c.146.147.338.22.53.22s.384-.073.53-.22c1.754-1.752 3.258-3.254 3.258-3.254.145-.145.217-.335.217-.526 0-.192-.074-.384-.221-.53-.292-.293-.766-.295-1.057-.004l-1.977 1.977v-6.693c0-.414-.336-.75-.75-.75s-.75.336-.75.75v6.693l-1.979-1.978c-.289-.289-.761-.287-1.054.006-.147.147-.221.339-.222.53 0 .191.071.38.216.525z"/>\
</symbol>

<symbol id="arrow-down-4" viewBox="0 0 24 24" ><path d="M23.662,15.286l-6.9-6.999c-0.39-0.394-1.024-0.394-1.414,0c-0.391,0.394-0.391,1.034,0,1.428L21.544,16   l-6.196,6.285c-0.391,0.394-0.391,1.034,0,1.428c0.391,0.394,1.024,0.394,1.414,0l6.899-6.999   C24.038,16.335,24.039,15.666,23.662,15.286z"></path><path d="M16.662,15.286L9.763,8.287c-0.391-0.394-1.024-0.394-1.414,0c-0.391,0.394-0.391,1.034,0,1.428L14.544,16   l-6.196,6.285c-0.391,0.394-0.391,1.034,0,1.428c0.391,0.394,1.024,0.394,1.414,0l6.899-6.999   C17.038,16.335,17.039,15.666,16.662,15.286z"></path></symbol>

<symbol id="arrow-down-6" viewBox="0 0 24 24"><path d="M15.7071 15.7071C15.3166 16.0976 14.6834 16.0976 14.2929 15.7071L9.29289 10.7071C8.90237 10.3166 8.90237 9.68342 9.29289 9.29289L14.2929 4.29289C14.6834 3.90237 15.3166 3.90237 15.7071 4.29289C16.0976 4.68342 16.0976 5.31658 15.7071 5.70711L11.4142 10L15.7071 14.2929C16.0976 14.6834 16.0976 15.3166 15.7071 15.7071ZM9.70711 15.7071C9.31658 16.0976 8.68342 16.0976 8.29289 15.7071L3.29289 10.7071C2.90237 10.3166 2.90237 9.68342 3.29289 9.29289L8.29289 4.29289C8.68342 3.90237 9.31658 3.90237 9.70711 4.29289C10.0976 4.68342 10.0976 5.31658 9.70711 5.70711L5.41421 10L9.70711 14.2929C10.0976 14.6834 10.0976 15.3166 9.70711 15.7071Z"/></symbol>

<symbol id="arrow-down-7" viewBox="0 0 24 24"><path d="M10.2929 15.7071C9.90237 15.3166 9.90237 14.6834 10.2929 14.2929L14.5858 10L10.2929 5.70711C9.90237 5.31658 9.90237 4.68342 10.2929 4.29289C10.6834 3.90237 11.3166 3.90237 11.7071 4.29289L16.7071 9.29289C17.0976 9.68342 17.0976 10.3166 16.7071 10.7071L11.7071 15.7071C11.3166 16.0976 10.6834 16.0976 10.2929 15.7071Z"/><path d="M4.29289 15.7071C3.90237 15.3166 3.90237 14.6834 4.29289 14.2929L8.58579 10L4.29289 5.70711C3.90237 5.31658 3.90237 4.68342 4.29289 4.29289C4.68342 3.90237 5.31658 3.90237 5.70711 4.29289L10.7071 9.29289C11.0976 9.68342 11.0976 10.3166 10.7071 10.7071L5.70711 15.7071C5.31658 16.0976 4.68342 16.0976 4.29289 15.7071Z"/></symbol>


</defs>
</svg>